<svg xmlns="http://www.w3.org/2000/svg" viewBox="0 0 64 64" role="img" aria-label="NetEase Cloud Music">
  <circle cx="32" cy="32" r="30" fill="#d43c33"/>
  <path fill="#fff" d="M32 48c-8.8 0-16-6.5-16-14.5 0-6.7 4.8-12.4 11.5-14 .8-3.6 3.9-6.2 7.7-6.2 4.4 0 8 3.6 8 8 0 1.1-.2 2.1-.6 3.1 3.2 2.1 5.4 5.7 5.4 9.8C48 41.8 40.8 48 32 48Zm0-6.2c5.1 0 9.2-3.4 9.2-7.7 0-2.2-1.1-4.3-3.1-5.7l-2.4-1.7 1.1-2.7c.3-.8.5-1.7.5-2.6 0-1.3-.9-2.2-2.1-2.2-1.1 0-1.9.8-2.1 1.9l-.8 3.6-3.6.6c-3.5.7-6 4-6 8.1.1 4.7 4.2 8.4 9.3 8.4Z"/>
  <path fill="#fff" d="M33.9 36.5c-1.9 0-3.4-1.4-3.4-3.2 0-1.9 1.5-3.3 3.4-3.3.7 0 1.4.2 2 .6V22h3.9v11.3c0 1.8-1.6 3.2-3.5 3.2h-2.4Z"/>
</svg>
